<svg width="360" height="222" viewBox="0 0 360 222" fill="none" xmlns="http://www.w3.org/2000/svg">
<path d="M31.1246 0C26.8561 0 22.8247 0.826667 19.0305 2.48C15.2362 4.07429 11.9163 6.28857 9.0706 9.12286C6.28421 11.9571 4.06102 15.2638 2.40104 19.0429C0.800347 22.7629 0 26.7486 0 31C0 35.2514 0.800347 39.2667 2.40104 43.0457C4.06102 46.8248 6.28421 50.1314 9.0706 52.9657C11.9163 55.741 15.2362 57.9552 19.0305 59.6086C22.8247 61.2029 26.8561 62 31.1246 62C35.3931 62 39.3949 61.2029 43.1298 59.6086C46.9241 57.9552 50.244 55.741 53.0897 52.9657C55.9354 50.1314 58.1586 46.8248 59.7593 43.0457C61.4193 39.2667 62.2492 35.2514 62.2492 31C62.2492 26.7486 61.4193 22.7629 59.7593 19.0429C58.1586 15.2638 55.9354 11.9571 53.0897 9.12286C50.244 6.28857 46.9241 4.07429 43.1298 2.48C39.3949 0.826667 35.3931 0 31.1246 0ZM31.1246 55.8C27.6861 55.8 24.4551 55.1505 21.4315 53.8514C18.408 52.5524 15.7698 50.781 13.517 48.5371C11.2641 46.2933 9.4856 43.6657 8.18133 40.6543C6.87706 37.6429 6.22492 34.4248 6.22492 31C6.22492 27.5752 6.87706 24.3571 8.18133 21.3457C9.4856 18.3343 11.2641 15.7067 13.517 13.4629C15.7698 11.219 18.408 9.44762 21.4315 8.14857C24.4551 6.84952 27.6861 6.2 31.1246 6.2C34.5631 6.2 37.7942 6.84952 40.8177 8.14857C43.8413 9.44762 46.4794 11.219 48.7323 13.4629C50.9851 15.7067 52.7636 18.3343 54.0679 21.3457C55.3722 24.3571 56.0243 27.5752 56.0243 31C56.0243 34.4248 55.3722 37.6429 54.0679 40.6543C52.7636 43.6657 50.9851 46.2933 48.7323 48.5371C46.4794 50.781 43.8413 52.5524 40.8177 53.8514C37.7942 55.1505 34.5631 55.8 31.1246 55.8ZM31.1246 9.3C27.2118 9.3 23.5658 10.2743 20.1865 12.2229C16.8666 14.1714 14.2284 16.8286 12.272 20.1943C11.7977 20.9619 11.6791 21.7591 11.9163 22.5857C12.2127 23.3533 12.687 23.9438 13.3391 24.3571C14.1691 24.8295 14.9695 24.9771 15.7402 24.8C16.5702 24.5638 17.1926 24.0619 17.6076 23.2943C18.7933 21.3457 20.2755 19.7514 22.054 18.5114C23.8326 17.2124 25.8186 16.3267 28.0122 15.8543V49.6C28.0122 50.4267 28.3086 51.1648 28.9014 51.8143C29.5536 52.4048 30.2946 52.7 31.1246 52.7C31.9546 52.7 32.666 52.4048 33.2589 51.8143C33.911 51.1648 34.2371 50.4267 34.2371 49.6V15.8543C36.4306 16.3267 38.4167 17.2124 40.1952 18.5114C41.9738 19.7514 43.4559 21.3457 44.6416 23.2943C45.0566 24.0619 45.6494 24.5638 46.4201 24.8C47.2501 24.9771 48.0505 24.8295 48.8212 24.3571C49.5326 23.9438 50.0069 23.3533 50.244 22.5857C50.5405 21.7591 50.4515 20.9619 49.9773 20.1943C48.0208 16.8286 45.353 14.1714 41.9738 12.2229C38.6538 10.2743 35.0374 9.3 31.1246 9.3Z" fill="black"/>
<path d="M90.6748 0C86.4062 0 82.3749 0.826667 78.5806 2.48C74.7864 4.07429 71.4664 6.28857 68.6208 9.12286C65.8344 11.9571 63.6112 15.2638 61.9512 19.0429C60.3505 22.7629 59.5502 26.7486 59.5502 31C59.5502 35.2514 60.3505 39.2667 61.9512 43.0457C63.6112 46.8248 65.8344 50.1314 68.6208 52.9657C71.4664 55.741 74.7864 57.9552 78.5806 59.6086C82.3749 61.2029 86.4062 62 90.6748 62C94.9433 62 98.945 61.2029 102.68 59.6086C106.474 57.9552 109.794 55.741 112.64 52.9657C115.486 50.1314 117.709 46.8248 119.309 43.0457C120.969 39.2667 121.799 35.2514 121.799 31C121.799 26.7486 120.969 22.7629 119.309 19.0429C117.709 15.2638 115.486 11.9571 112.64 9.12286C109.794 6.28857 106.474 4.07429 102.68 2.48C98.945 0.826667 94.9433 0 90.6748 0ZM90.6748 55.8C87.2362 55.8 84.0052 55.1505 80.9817 53.8514C77.9581 52.5524 75.32 50.781 73.0671 48.5371C70.8143 46.2933 69.0358 43.6657 67.7315 40.6543C66.4272 37.6429 65.7751 34.4248 65.7751 31C65.7751 27.5752 66.4272 24.3571 67.7315 21.3457C69.0358 18.3343 70.8143 15.7067 73.0671 13.4629C75.32 11.219 77.9581 9.44762 80.9817 8.14857C84.0052 6.84952 87.2362 6.2 90.6748 6.2C94.1133 6.2 97.3443 6.84952 100.368 8.14857C103.391 9.44762 106.03 11.219 108.282 13.4629C110.535 15.7067 112.314 18.3343 113.618 21.3457C114.922 24.3571 115.574 27.5752 115.574 31C115.574 34.4248 114.922 37.6429 113.618 40.6543C112.314 43.6657 110.535 46.2933 108.282 48.5371C106.03 50.781 103.391 52.5524 100.368 53.8514C97.3443 55.1505 94.1133 55.8 90.6748 55.8ZM90.6748 9.3C87.6512 9.3 84.8056 9.89048 82.1377 11.0714C79.5292 12.1933 77.2467 13.7286 75.2903 15.6771C73.3339 17.6257 71.7629 19.9286 70.5772 22.5857C69.4507 25.1838 68.8875 27.9886 68.8875 31C68.8875 34.8971 69.8361 38.5286 71.7332 41.8943C73.6896 45.201 76.3574 47.8286 79.7367 49.7771C80.5667 50.2495 81.367 50.3676 82.1377 50.1314C82.9677 49.8362 83.5902 49.3638 84.0052 48.7143C84.4795 47.8876 84.5981 47.0905 84.3609 46.3229C84.1831 45.4962 83.6791 44.8762 82.8492 44.4629C80.952 43.2819 79.3513 41.8057 78.0471 40.0343C76.7428 38.2629 75.8535 36.2848 75.3792 34.1H105.881C105.407 36.2848 104.518 38.2629 103.214 40.0343C101.969 41.8057 100.368 43.2819 98.4115 44.4629C97.6408 44.8762 97.1368 45.4962 96.8997 46.3229C96.7218 47.0905 96.8701 47.8876 97.3443 48.7143C97.7593 49.3638 98.3522 49.8362 99.1229 50.1314C99.9529 50.3676 100.753 50.2495 101.524 49.7771C104.903 47.8286 107.571 45.201 109.527 41.8943C111.484 38.5286 112.462 34.8971 112.462 31C112.462 27.9886 111.869 25.1838 110.683 22.5857C109.557 19.9286 108.016 17.6257 106.059 15.6771C104.103 13.7286 101.791 12.1933 99.1229 11.0714C96.5144 9.89048 93.6983 9.3 90.6748 9.3ZM90.6748 15.5C92.5126 15.5 94.2912 15.8248 96.0104 16.4743C97.7297 17.0648 99.2415 17.921 100.546 19.0429C101.909 20.1648 103.036 21.4933 103.925 23.0286C104.874 24.5048 105.526 26.1286 105.881 27.9H75.3792C75.735 26.1286 76.3871 24.5048 77.3356 23.0286C78.2842 21.4933 79.4106 20.1648 80.7149 19.0429C82.0784 17.921 83.5902 17.0648 85.2502 16.4743C86.9695 15.8248 88.7776 15.5 90.6748 15.5Z" fill="black"/>
<path d="M150.225 0C145.956 0 141.925 0.826667 138.131 2.48C134.337 4.07429 131.017 6.28857 128.171 9.12286C125.385 11.9571 123.161 15.2638 121.501 19.0429C119.901 22.7629 119.1 26.7486 119.1 31C119.1 35.2514 119.901 39.2667 121.501 43.0457C123.161 46.8248 125.385 50.1314 128.171 52.9657C131.017 55.741 134.337 57.9552 138.131 59.6086C141.925 61.2029 145.956 62 150.225 62C154.493 62 158.495 61.2029 162.23 59.6086C166.024 57.9552 169.344 55.741 172.19 52.9657C175.036 50.1314 177.259 46.8248 178.86 43.0457C180.52 39.2667 181.35 35.2514 181.35 31C181.35 26.7486 180.52 22.7629 178.86 19.0429C177.259 15.2638 175.036 11.9571 172.19 9.12286C169.344 6.28857 166.024 4.07429 162.23 2.48C158.495 0.826667 154.493 0 150.225 0ZM150.225 55.8C146.786 55.8 143.555 55.1505 140.532 53.8514C137.508 52.5524 134.87 50.781 132.617 48.5371C130.364 46.2933 128.586 43.6657 127.282 40.6543C125.977 37.6429 125.325 34.4248 125.325 31C125.325 27.5752 125.977 24.3571 127.282 21.3457C128.586 18.3343 130.364 15.7067 132.617 13.4629C134.87 11.219 137.508 9.44762 140.532 8.14857C143.555 6.84952 146.786 6.2 150.225 6.2C153.663 6.2 156.894 6.84952 159.918 8.14857C162.942 9.44762 165.58 11.219 167.833 13.4629C170.085 15.7067 171.864 18.3343 173.168 21.3457C174.472 24.3571 175.125 27.5752 175.125 31C175.125 34.4248 174.472 37.6429 173.168 40.6543C171.864 43.6657 170.085 46.2933 167.833 48.5371C165.58 50.781 162.942 52.5524 159.918 53.8514C156.894 55.1505 153.663 55.8 150.225 55.8ZM163.742 38.7943C162.378 41.2152 160.452 43.1048 157.962 44.4629C155.531 45.821 152.952 46.5 150.225 46.5C148.091 46.5 146.075 46.0867 144.178 45.26C142.281 44.4333 140.621 43.341 139.198 41.9829C137.834 40.5657 136.738 38.9124 135.908 37.0229C135.078 35.1333 134.663 33.1257 134.663 31C134.663 28.2838 135.344 25.7152 136.708 23.2943C138.072 20.8143 139.969 18.8952 142.399 17.5371C143.229 17.1238 143.733 16.5333 143.911 15.7657C144.148 14.939 144.03 14.1419 143.555 13.3743C143.14 12.6657 142.518 12.1933 141.688 11.9571C140.917 11.6619 140.117 11.7505 139.287 12.2229C135.908 14.1714 133.24 16.8286 131.283 20.1943C129.386 23.501 128.438 27.1029 128.438 31C128.438 34.0114 129.001 36.8457 130.127 39.5029C131.313 42.101 132.884 44.3743 134.84 46.3229C136.797 48.2714 139.079 49.8362 141.688 51.0171C144.356 52.139 147.201 52.7 150.225 52.7C154.138 52.7 157.754 51.7552 161.074 49.8657C164.453 47.9171 167.121 45.26 169.078 41.8943C169.552 41.0676 169.641 40.2705 169.344 39.5029C169.107 38.6762 168.633 38.0562 167.922 37.6429C167.151 37.1705 166.35 37.0524 165.52 37.2886C164.75 37.4657 164.157 37.9676 163.742 38.7943Z" fill="black"/>
<path d="M209.775 0C205.507 0 201.475 0.826667 197.681 2.48C193.887 4.07429 190.567 6.28857 187.721 9.12286C184.935 11.9571 182.711 15.2638 181.051 19.0429C179.451 22.7629 178.65 26.7486 178.65 31C178.65 35.2514 179.451 39.2667 181.051 43.0457C182.711 46.8248 184.935 50.1314 187.721 52.9657C190.567 55.741 193.887 57.9552 197.681 59.6086C201.475 61.2029 205.507 62 209.775 62C214.044 62 218.045 61.2029 221.78 59.6086C225.575 57.9552 228.894 55.741 231.74 52.9657C234.586 50.1314 236.809 46.8248 238.41 43.0457C240.07 39.2667 240.9 35.2514 240.9 31C240.9 26.7486 240.07 22.7629 238.41 19.0429C236.809 15.2638 234.586 11.9571 231.74 9.12286C228.894 6.28857 225.575 4.07429 221.78 2.48C218.045 0.826667 214.044 0 209.775 0ZM209.775 55.8C206.337 55.8 203.106 55.1505 200.082 53.8514C197.058 52.5524 194.42 50.781 192.167 48.5371C189.915 46.2933 188.136 43.6657 186.832 40.6543C185.528 37.6429 184.875 34.4248 184.875 31C184.875 27.5752 185.528 24.3571 186.832 21.3457C188.136 18.3343 189.915 15.7067 192.167 13.4629C194.42 11.219 197.058 9.44762 200.082 8.14857C203.106 6.84952 206.337 6.2 209.775 6.2C213.214 6.2 216.445 6.84952 219.468 8.14857C222.492 9.44762 225.13 11.219 227.383 13.4629C229.636 15.7067 231.414 18.3343 232.718 21.3457C234.023 24.3571 234.675 27.5752 234.675 31C234.675 34.4248 234.023 37.6429 232.718 40.6543C231.414 43.6657 229.636 46.2933 227.383 48.5371C225.13 50.781 222.492 52.5524 219.468 53.8514C216.445 55.1505 213.214 55.8 209.775 55.8ZM219.557 11.6029C218.786 11.2486 217.986 11.219 217.156 11.5143C216.385 11.7505 215.793 12.2524 215.378 13.02C214.963 13.8467 214.874 14.6733 215.111 15.5C215.407 16.2676 215.97 16.8286 216.8 17.1829C218.045 17.8324 219.172 18.6295 220.18 19.5743C221.247 20.519 222.195 21.5819 223.025 22.7629L217.867 27.9H194.48C194.954 25.7152 195.843 23.7371 197.147 21.9657C198.452 20.1943 200.052 18.7181 201.949 17.5371C202.779 17.1238 203.283 16.5333 203.461 15.7657C203.698 14.939 203.58 14.1419 203.106 13.3743C202.691 12.6657 202.068 12.1933 201.238 11.9571C200.467 11.6619 199.667 11.7505 198.837 12.2229C195.458 14.1714 192.79 16.8286 190.834 20.1943C188.936 23.501 187.988 27.1029 187.988 31C187.988 34.8971 188.936 38.5286 190.834 41.8943C192.79 45.201 195.458 47.8286 198.837 49.7771C199.667 50.2495 200.467 50.3676 201.238 50.1314C202.068 49.8362 202.691 49.3638 203.106 48.7143C203.58 47.8876 203.698 47.0905 203.461 46.3229C203.283 45.4962 202.779 44.8762 201.949 44.4629C200.052 43.2819 198.452 41.8057 197.147 40.0343C195.843 38.2629 194.954 36.2848 194.48 34.1H217.867L223.025 39.2371C222.195 40.4181 221.247 41.4809 220.18 42.4257C219.172 43.3705 218.045 44.1676 216.8 44.8171C215.97 45.2305 215.407 45.8505 215.111 46.6771C214.874 47.4448 214.963 48.2124 215.378 48.98C215.793 49.8067 216.385 50.3676 217.156 50.6629C217.986 50.8991 218.786 50.8105 219.557 50.3971C221.751 49.2752 223.707 47.8286 225.426 46.0571C227.146 44.2857 228.568 42.2781 229.695 40.0343C229.932 39.3848 229.962 38.7352 229.784 38.0857C229.665 37.4362 229.369 36.8752 228.894 36.4029L223.47 31L228.894 25.5971C229.902 24.5933 230.169 23.4124 229.695 22.0543C228.568 19.8105 227.146 17.8029 225.426 16.0314C223.707 14.201 221.751 12.7248 219.557 11.6029Z" fill="black"/>
<path d="M269.325 0C265.057 0 261.025 0.826667 257.231 2.48C253.437 4.07429 250.117 6.28857 247.271 9.12286C244.485 11.9571 242.262 15.2638 240.602 19.0429C239.001 22.7629 238.201 26.7486 238.201 31C238.201 35.2514 239.001 39.2667 240.602 43.0457C242.262 46.8248 244.485 50.1314 247.271 52.9657C250.117 55.741 253.437 57.9552 257.231 59.6086C261.025 61.2029 265.057 62 269.325 62C273.594 62 277.595 61.2029 281.33 59.6086C285.125 57.9552 288.445 55.741 291.29 52.9657C294.136 50.1314 296.359 46.8248 297.96 43.0457C299.62 39.2667 300.45 35.2514 300.45 31C300.45 26.7486 299.62 22.7629 297.96 19.0429C296.359 15.2638 294.136 11.9571 291.29 9.12286C288.445 6.28857 285.125 4.07429 281.33 2.48C277.595 0.826667 273.594 0 269.325 0ZM269.325 55.8C265.887 55.8 262.656 55.1505 259.632 53.8514C256.609 52.5524 253.97 50.781 251.718 48.5371C249.465 46.2933 247.686 43.6657 246.382 40.6543C245.078 37.6429 244.426 34.4248 244.426 31C244.426 27.5752 245.078 24.3571 246.382 21.3457C247.686 18.3343 249.465 15.7067 251.718 13.4629C253.97 11.219 256.609 9.44762 259.632 8.14857C262.656 6.84952 265.887 6.2 269.325 6.2C272.764 6.2 275.995 6.84952 279.018 8.14857C282.042 9.44762 284.68 11.219 286.933 13.4629C289.186 15.7067 290.964 18.3343 292.269 21.3457C293.573 24.3571 294.225 27.5752 294.225 31C294.225 34.4248 293.573 37.6429 292.269 40.6543C290.964 43.6657 289.186 46.2933 286.933 48.5371C284.68 50.781 282.042 52.5524 279.018 53.8514C275.995 55.1505 272.764 55.8 269.325 55.8ZM269.325 9.3C266.302 9.3 263.456 9.89048 260.788 11.0714C258.18 12.1933 255.897 13.7286 253.941 15.6771C251.984 17.6257 250.413 19.9286 249.228 22.5857C248.101 25.1838 247.538 27.9886 247.538 31C247.538 34.0114 248.101 36.8457 249.228 39.5029C250.413 42.101 251.984 44.3743 253.941 46.3229C255.897 48.2714 258.18 49.8362 260.788 51.0171C263.456 52.139 266.302 52.7 269.325 52.7C273.238 52.7 276.854 51.7552 280.174 49.8657C283.554 47.9171 286.221 45.26 288.178 41.8943C288.652 41.0676 288.741 40.2705 288.445 39.5029C288.207 38.6762 287.733 38.0562 287.022 37.6429C286.251 37.1705 285.451 37.0524 284.621 37.2886C283.85 37.4657 283.257 37.9676 282.842 38.7943C281.479 41.2152 279.552 43.1048 277.062 44.4629C274.631 45.821 272.052 46.5 269.325 46.5C267.428 46.5 265.62 46.2048 263.901 45.6143C262.241 44.9648 260.729 44.1086 259.365 43.0457C258.061 41.9238 256.935 40.5952 255.986 39.06C255.038 37.5248 254.385 35.8714 254.03 34.1H269.325C270.155 34.1 270.867 33.8048 271.459 33.2143C272.112 32.5648 272.438 31.8267 272.438 31C272.438 30.1733 272.112 29.4648 271.459 28.8743C270.867 28.2248 270.155 27.9 269.325 27.9H254.03C254.385 26.1286 255.038 24.5048 255.986 23.0286C256.935 21.4933 258.061 20.1648 259.365 19.0429C260.729 17.921 262.241 17.0648 263.901 16.4743C265.62 15.8248 267.428 15.5 269.325 15.5C272.052 15.5 274.631 16.179 277.062 17.5371C279.552 18.8952 281.479 20.8143 282.842 23.2943C283.257 24.0619 283.85 24.5638 284.621 24.8C285.451 24.9771 286.251 24.8295 287.022 24.3571C287.733 23.9438 288.207 23.3533 288.445 22.5857C288.741 21.7591 288.652 20.9619 288.178 20.1943C286.221 16.8286 283.554 14.1714 280.174 12.2229C276.854 10.2743 273.238 9.3 269.325 9.3Z" fill="black"/>
<path d="M328.875 0C324.607 0 320.576 0.826667 316.781 2.48C312.987 4.07429 309.667 6.28857 306.821 9.12286C304.035 11.9571 301.812 15.2638 300.152 19.0429C298.551 22.7629 297.751 26.7486 297.751 31C297.751 35.2514 298.551 39.2667 300.152 43.0457C301.812 46.8248 304.035 50.1314 306.821 52.9657C309.667 55.741 312.987 57.9552 316.781 59.6086C320.576 61.2029 324.607 62 328.875 62C333.144 62 337.146 61.2029 340.881 59.6086C344.675 57.9552 347.995 55.741 350.84 52.9657C353.686 50.1314 355.909 46.8248 357.51 43.0457C359.17 39.2667 360 35.2514 360 31C360 26.7486 359.17 22.7629 357.51 19.0429C355.909 15.2638 353.686 11.9571 350.84 9.12286C347.995 6.28857 344.675 4.07429 340.881 2.48C337.146 0.826667 333.144 0 328.875 0ZM328.875 55.8C325.437 55.8 322.206 55.1505 319.182 53.8514C316.159 52.5524 313.521 50.781 311.268 48.5371C309.015 46.2933 307.236 43.6657 305.932 40.6543C304.628 37.6429 303.976 34.4248 303.976 31C303.976 27.5752 304.628 24.3571 305.932 21.3457C307.236 18.3343 309.015 15.7067 311.268 13.4629C313.521 11.219 316.159 9.44762 319.182 8.14857C322.206 6.84952 325.437 6.2 328.875 6.2C332.314 6.2 335.545 6.84952 338.568 8.14857C341.592 9.44762 344.23 11.219 346.483 13.4629C348.736 15.7067 350.514 18.3343 351.819 21.3457C353.123 24.3571 353.775 27.5752 353.775 31C353.775 34.4248 353.123 37.6429 351.819 40.6543C350.514 43.6657 348.736 46.2933 346.483 48.5371C344.23 50.781 341.592 52.5524 338.568 53.8514C335.545 55.1505 332.314 55.8 328.875 55.8ZM328.875 9.3C324.963 9.3 321.317 10.2743 317.937 12.2229C314.617 14.1714 311.979 16.8286 310.023 20.1943C309.548 20.9619 309.43 21.7591 309.667 22.5857C309.963 23.3533 310.438 23.9438 311.09 24.3571C311.92 24.8295 312.72 24.9771 313.491 24.8C314.321 24.5638 314.943 24.0619 315.358 23.2943C316.544 21.3457 318.026 19.7514 319.805 18.5114C321.583 17.2124 323.569 16.3267 325.763 15.8543V49.6C325.763 50.4267 326.059 51.1648 326.652 51.8143C327.304 52.4048 328.045 52.7 328.875 52.7C329.705 52.7 330.417 52.4048 331.01 51.8143C331.662 51.1648 331.988 50.4267 331.988 49.6V15.8543C334.181 16.3267 336.167 17.2124 337.946 18.5114C339.725 19.7514 341.207 21.3457 342.392 23.2943C342.807 24.0619 343.4 24.5638 344.171 24.8C345.001 24.9771 345.801 24.8295 346.572 24.3571C347.283 23.9438 347.758 23.3533 347.995 22.5857C348.291 21.7591 348.202 20.9619 347.728 20.1943C345.772 16.8286 343.104 14.1714 339.725 12.2229C336.405 10.2743 332.788 9.3 328.875 9.3Z" fill="black"/>
<path d="M148 99.344V74H168.628C170.02 74 171.208 74.132 172.192 74.396C173.2 74.636 174.004 74.996 174.604 75.476C175.228 75.932 175.684 76.508 175.972 77.204C176.26 77.876 176.404 78.632 176.404 79.472V81.812C176.404 82.916 176.128 83.852 175.576 84.62C175.048 85.364 174.328 85.832 173.416 86.024C174.376 86.288 175.168 86.744 175.792 87.392C176.416 88.016 176.728 88.94 176.728 90.164V93.872C176.728 94.592 176.596 95.288 176.332 95.96C176.092 96.608 175.66 97.184 175.036 97.688C174.436 98.192 173.62 98.6 172.588 98.912C171.556 99.2 170.26 99.344 168.7 99.344H148ZM171.94 90.236C171.94 89.444 171.64 88.892 171.04 88.58C170.44 88.244 169.66 88.076 168.7 88.076H152.788V95.6H168.7C169.66 95.6 170.44 95.42 171.04 95.06C171.64 94.7 171.94 94.004 171.94 92.972V90.236ZM171.616 79.724C171.616 79.028 171.4 78.524 170.968 78.212C170.536 77.9 169.756 77.744 168.628 77.744H152.788V84.332H168.628C169.756 84.332 170.536 84.176 170.968 83.864C171.4 83.552 171.616 83.048 171.616 82.352V79.724Z" fill="black"/>
<path d="M191.737 99.344V89.048L175.465 74H181.585L194.113 85.592L206.641 74H212.689L196.525 89.048V99.344H191.737Z" fill="black"/>
<path d="M161.976 143.148V141.34L176.459 131.291H161.976V129H181.219V130.809L166.675 140.857H181.219V143.148H161.976Z" fill="black"/>
<path d="M182.281 143.148V129H197.008V131.09H184.987V134.627H196.398V136.717H184.987V141.058H197.008V143.148H182.281Z" fill="black"/>
<path d="M165.027 162.207V167.432H162.322V153.284H174.059C174.872 153.284 175.564 153.371 176.133 153.545C176.703 153.706 177.164 153.94 177.517 154.249C177.883 154.543 178.147 154.898 178.31 155.314C178.473 155.729 178.554 156.191 178.554 156.7V158.79C178.554 159.3 178.473 159.762 178.31 160.177C178.147 160.593 177.883 160.954 177.517 161.262C177.164 161.557 176.703 161.792 176.133 161.966C175.564 162.127 174.872 162.207 174.059 162.207H165.027ZM175.849 156.68C175.849 155.809 175.252 155.374 174.059 155.374H165.027V160.117H174.059C175.252 160.117 175.849 159.681 175.849 158.811V156.68Z" fill="black"/>
<path d="M193.843 167.432V161.001H182.126V167.432H179.421V153.284H182.126V158.911H193.843V153.284H196.548V167.432H193.843Z" fill="black"/>
<path d="M170.194 191.716V185.968L161 177.568H164.458L171.536 184.039L178.615 177.568H182.032L172.899 185.968V191.716H170.194Z" fill="black"/>
<path d="M195.949 191.716L192.593 185.406H185.046V191.716H182.341V177.568H194.505C195.318 177.568 196.01 177.655 196.579 177.829C197.149 177.99 197.61 178.224 197.963 178.532C198.329 178.827 198.593 179.182 198.756 179.598C198.919 180.013 199 180.475 199 180.984V181.989C199 182.9 198.729 183.664 198.186 184.28C197.644 184.883 196.735 185.245 195.461 185.365L198.837 191.716H195.949ZM196.295 180.964C196.295 180.093 195.698 179.658 194.505 179.658H185.046V183.316H194.505C195.698 183.316 196.295 182.88 196.295 182.009V180.964Z" fill="black"/>
<path d="M166.756 216C165.943 216 165.251 215.92 164.682 215.759C164.112 215.585 163.644 215.35 163.278 215.055C162.926 214.747 162.668 214.386 162.505 213.97C162.342 213.555 162.261 213.093 162.261 212.584V201.852H164.966V212.604C164.966 213.474 165.563 213.91 166.756 213.91H175.645C176.839 213.91 177.435 213.474 177.435 212.604V201.852H180.141V212.584C180.141 213.093 180.086 213.555 179.978 213.97C179.883 214.386 179.686 214.747 179.388 215.055C179.103 215.35 178.703 215.585 178.188 215.759C177.686 215.92 177.028 216 176.215 216H166.756Z" fill="black"/>
<path d="M181.888 216V213.91H194.337C195.53 213.91 196.127 213.474 196.127 212.604V210.815C196.127 209.944 195.53 209.509 194.337 209.509H185.916C185.102 209.509 184.411 209.428 183.841 209.268C183.272 209.093 182.804 208.859 182.438 208.564C182.085 208.256 181.827 207.894 181.665 207.479C181.502 207.064 181.421 206.601 181.421 206.092V205.268C181.421 204.759 181.502 204.297 181.665 203.882C181.827 203.466 182.085 203.111 182.438 202.816C182.804 202.508 183.272 202.274 183.841 202.113C184.411 201.939 185.102 201.852 185.916 201.852H198.039V203.942H185.916C184.723 203.942 184.126 204.377 184.126 205.248V206.112C184.126 206.983 184.723 207.419 185.916 207.419H194.337C195.151 207.419 195.842 207.506 196.412 207.68C196.981 207.841 197.442 208.075 197.795 208.383C198.161 208.678 198.425 209.033 198.588 209.448C198.751 209.864 198.832 210.326 198.832 210.835V212.584C198.832 213.093 198.751 213.555 198.588 213.97C198.425 214.386 198.161 214.747 197.795 215.055C197.442 215.35 196.981 215.585 196.412 215.759C195.842 215.92 195.151 216 194.337 216H181.888Z" fill="black"/>
<path fill-rule="evenodd" clip-rule="evenodd" d="M203.443 125.517H156.557V219.483H203.443V125.517ZM154 123V222H206V123H154Z" fill="black"/>
</svg>
