<svg width="731" height="101" viewBox="0 0 731 101" fill="none" xmlns="http://www.w3.org/2000/svg">
<path d="M50.4 0.199997C43.488 0.199997 36.96 1.544 30.816 4.232C24.672 6.824 19.296 10.424 14.688 15.032C10.176 19.64 6.576 25.016 3.888 31.16C1.296 37.208 0 43.688 0 50.6C0 57.512 1.296 64.04 3.888 70.184C6.576 76.328 10.176 81.704 14.688 86.312C19.296 90.824 24.672 94.424 30.816 97.112C36.96 99.704 43.488 101 50.4 101C57.312 101 63.792 99.704 69.84 97.112C75.984 94.424 81.36 90.824 85.968 86.312C90.576 81.704 94.176 76.328 96.768 70.184C99.456 64.04 100.8 57.512 100.8 50.6C100.8 43.688 99.456 37.208 96.768 31.16C94.176 25.016 90.576 19.64 85.968 15.032C81.36 10.424 75.984 6.824 69.84 4.232C63.792 1.544 57.312 0.199997 50.4 0.199997ZM50.4 90.92C44.832 90.92 39.6 89.864 34.704 87.752C29.808 85.64 25.536 82.76 21.888 79.112C18.24 75.464 15.36 71.192 13.248 66.296C11.136 61.4 10.08 56.168 10.08 50.6C10.08 45.032 11.136 39.8 13.248 34.904C15.36 30.008 18.24 25.736 21.888 22.088C25.536 18.44 29.808 15.56 34.704 13.448C39.6 11.336 44.832 10.28 50.4 10.28C55.968 10.28 61.2 11.336 66.096 13.448C70.992 15.56 75.264 18.44 78.912 22.088C82.56 25.736 85.44 30.008 87.552 34.904C89.664 39.8 90.72 45.032 90.72 50.6C90.72 56.168 89.664 61.4 87.552 66.296C85.44 71.192 82.56 75.464 78.912 79.112C75.264 82.76 70.992 85.64 66.096 87.752C61.2 89.864 55.968 90.92 50.4 90.92ZM50.4 15.32C44.064 15.32 38.16 16.904 32.688 20.072C27.312 23.24 23.04 27.56 19.872 33.032C19.104 34.28 18.912 35.576 19.296 36.92C19.776 38.168 20.544 39.128 21.6 39.8C22.944 40.568 24.24 40.808 25.488 40.52C26.832 40.136 27.84 39.32 28.512 38.072C30.432 34.904 32.832 32.312 35.712 30.296C38.592 28.184 41.808 26.744 45.36 25.976V80.84C45.36 82.184 45.84 83.384 46.8 84.44C47.856 85.4 49.056 85.88 50.4 85.88C51.744 85.88 52.896 85.4 53.856 84.44C54.912 83.384 55.44 82.184 55.44 80.84V25.976C58.992 26.744 62.208 28.184 65.088 30.296C67.968 32.312 70.368 34.904 72.288 38.072C72.96 39.32 73.92 40.136 75.168 40.52C76.512 40.808 77.808 40.568 79.056 39.8C80.208 39.128 80.976 38.168 81.36 36.92C81.84 35.576 81.696 34.28 80.928 33.032C77.76 27.56 73.44 23.24 67.968 20.072C62.592 16.904 56.736 15.32 50.4 15.32Z" fill="black"/>
<path d="M146.829 0.199997C139.917 0.199997 133.389 1.544 127.245 4.232C121.101 6.824 115.725 10.424 111.117 15.032C106.605 19.64 103.005 25.016 100.317 31.16C97.7254 37.208 96.4294 43.688 96.4294 50.6C96.4294 57.512 97.7254 64.04 100.317 70.184C103.005 76.328 106.605 81.704 111.117 86.312C115.725 90.824 121.101 94.424 127.245 97.112C133.389 99.704 139.917 101 146.829 101C153.741 101 160.221 99.704 166.269 97.112C172.413 94.424 177.789 90.824 182.397 86.312C187.005 81.704 190.605 76.328 193.197 70.184C195.885 64.04 197.229 57.512 197.229 50.6C197.229 43.688 195.885 37.208 193.197 31.16C190.605 25.016 187.005 19.64 182.397 15.032C177.789 10.424 172.413 6.824 166.269 4.232C160.221 1.544 153.741 0.199997 146.829 0.199997ZM146.829 90.92C141.261 90.92 136.029 89.864 131.133 87.752C126.237 85.64 121.965 82.76 118.317 79.112C114.669 75.464 111.789 71.192 109.677 66.296C107.565 61.4 106.509 56.168 106.509 50.6C106.509 45.032 107.565 39.8 109.677 34.904C111.789 30.008 114.669 25.736 118.317 22.088C121.965 18.44 126.237 15.56 131.133 13.448C136.029 11.336 141.261 10.28 146.829 10.28C152.397 10.28 157.629 11.336 162.525 13.448C167.421 15.56 171.693 18.44 175.341 22.088C178.989 25.736 181.869 30.008 183.981 34.904C186.093 39.8 187.149 45.032 187.149 50.6C187.149 56.168 186.093 61.4 183.981 66.296C181.869 71.192 178.989 75.464 175.341 79.112C171.693 82.76 167.421 85.64 162.525 87.752C157.629 89.864 152.397 90.92 146.829 90.92ZM146.829 15.32C141.933 15.32 137.325 16.28 133.005 18.2C128.781 20.024 125.085 22.52 121.917 25.688C118.749 28.856 116.205 32.6 114.285 36.92C112.461 41.144 111.549 45.704 111.549 50.6C111.549 56.936 113.085 62.84 116.157 68.312C119.325 73.688 123.645 77.96 129.117 81.128C130.461 81.896 131.757 82.088 133.005 81.704C134.349 81.224 135.357 80.456 136.029 79.4C136.797 78.056 136.989 76.76 136.605 75.512C136.317 74.168 135.501 73.16 134.157 72.488C131.085 70.568 128.493 68.168 126.381 65.288C124.269 62.408 122.829 59.192 122.061 55.64H171.453C170.685 59.192 169.245 62.408 167.133 65.288C165.117 68.168 162.525 70.568 159.357 72.488C158.109 73.16 157.293 74.168 156.909 75.512C156.621 76.76 156.861 78.056 157.629 79.4C158.301 80.456 159.261 81.224 160.509 81.704C161.853 82.088 163.149 81.896 164.397 81.128C169.869 77.96 174.189 73.688 177.357 68.312C180.525 62.84 182.109 56.936 182.109 50.6C182.109 45.704 181.149 41.144 179.229 36.92C177.405 32.6 174.909 28.856 171.741 25.688C168.573 22.52 164.829 20.024 160.509 18.2C156.285 16.28 151.725 15.32 146.829 15.32ZM146.829 25.4C149.805 25.4 152.685 25.928 155.469 26.984C158.253 27.944 160.701 29.336 162.813 31.16C165.021 32.984 166.845 35.144 168.285 37.64C169.821 40.04 170.877 42.68 171.453 45.56H122.061C122.637 42.68 123.693 40.04 125.229 37.64C126.765 35.144 128.589 32.984 130.701 31.16C132.909 29.336 135.357 27.944 138.045 26.984C140.829 25.928 143.757 25.4 146.829 25.4Z" fill="black"/>
<path d="M243.259 0.199997C236.347 0.199997 229.819 1.544 223.675 4.232C217.531 6.824 212.155 10.424 207.547 15.032C203.035 19.64 199.435 25.016 196.747 31.16C194.155 37.208 192.859 43.688 192.859 50.6C192.859 57.512 194.155 64.04 196.747 70.184C199.435 76.328 203.035 81.704 207.547 86.312C212.155 90.824 217.531 94.424 223.675 97.112C229.819 99.704 236.347 101 243.259 101C250.171 101 256.651 99.704 262.699 97.112C268.843 94.424 274.219 90.824 278.827 86.312C283.435 81.704 287.035 76.328 289.627 70.184C292.315 64.04 293.659 57.512 293.659 50.6C293.659 43.688 292.315 37.208 289.627 31.16C287.035 25.016 283.435 19.64 278.827 15.032C274.219 10.424 268.843 6.824 262.699 4.232C256.651 1.544 250.171 0.199997 243.259 0.199997ZM243.259 90.92C237.691 90.92 232.459 89.864 227.563 87.752C222.667 85.64 218.395 82.76 214.747 79.112C211.099 75.464 208.219 71.192 206.107 66.296C203.995 61.4 202.939 56.168 202.939 50.6C202.939 45.032 203.995 39.8 206.107 34.904C208.219 30.008 211.099 25.736 214.747 22.088C218.395 18.44 222.667 15.56 227.563 13.448C232.459 11.336 237.691 10.28 243.259 10.28C248.827 10.28 254.059 11.336 258.955 13.448C263.851 15.56 268.123 18.44 271.771 22.088C275.419 25.736 278.299 30.008 280.411 34.904C282.523 39.8 283.579 45.032 283.579 50.6C283.579 56.168 282.523 61.4 280.411 66.296C278.299 71.192 275.419 75.464 271.771 79.112C268.123 82.76 263.851 85.64 258.955 87.752C254.059 89.864 248.827 90.92 243.259 90.92ZM265.147 63.272C262.939 67.208 259.819 70.28 255.787 72.488C251.851 74.696 247.675 75.8 243.259 75.8C239.803 75.8 236.539 75.128 233.467 73.784C230.395 72.44 227.707 70.664 225.403 68.456C223.195 66.152 221.419 63.464 220.075 60.392C218.731 57.32 218.059 54.056 218.059 50.6C218.059 46.184 219.163 42.008 221.371 38.072C223.579 34.04 226.651 30.92 230.587 28.712C231.931 28.04 232.747 27.08 233.035 25.832C233.419 24.488 233.227 23.192 232.459 21.944C231.787 20.792 230.779 20.024 229.435 19.64C228.187 19.16 226.891 19.304 225.547 20.072C220.075 23.24 215.755 27.56 212.587 33.032C209.515 38.408 207.979 44.264 207.979 50.6C207.979 55.496 208.891 60.104 210.715 64.424C212.635 68.648 215.179 72.344 218.347 75.512C221.515 78.68 225.211 81.224 229.435 83.144C233.755 84.968 238.363 85.88 243.259 85.88C249.595 85.88 255.451 84.344 260.827 81.272C266.299 78.104 270.619 73.784 273.787 68.312C274.555 66.968 274.699 65.672 274.219 64.424C273.835 63.08 273.067 62.072 271.915 61.4C270.667 60.632 269.371 60.44 268.027 60.824C266.779 61.112 265.819 61.928 265.147 63.272Z" fill="black"/>
<path d="M339.688 0.199997C332.776 0.199997 326.248 1.544 320.104 4.232C313.96 6.824 308.584 10.424 303.976 15.032C299.464 19.64 295.864 25.016 293.176 31.16C290.584 37.208 289.288 43.688 289.288 50.6C289.288 57.512 290.584 64.04 293.176 70.184C295.864 76.328 299.464 81.704 303.976 86.312C308.584 90.824 313.96 94.424 320.104 97.112C326.248 99.704 332.776 101 339.688 101C346.6 101 353.08 99.704 359.128 97.112C365.272 94.424 370.648 90.824 375.256 86.312C379.864 81.704 383.464 76.328 386.056 70.184C388.744 64.04 390.088 57.512 390.088 50.6C390.088 43.688 388.744 37.208 386.056 31.16C383.464 25.016 379.864 19.64 375.256 15.032C370.648 10.424 365.272 6.824 359.128 4.232C353.08 1.544 346.6 0.199997 339.688 0.199997ZM339.688 90.92C334.12 90.92 328.888 89.864 323.992 87.752C319.096 85.64 314.824 82.76 311.176 79.112C307.528 75.464 304.648 71.192 302.536 66.296C300.424 61.4 299.368 56.168 299.368 50.6C299.368 45.032 300.424 39.8 302.536 34.904C304.648 30.008 307.528 25.736 311.176 22.088C314.824 18.44 319.096 15.56 323.992 13.448C328.888 11.336 334.12 10.28 339.688 10.28C345.256 10.28 350.488 11.336 355.384 13.448C360.28 15.56 364.552 18.44 368.2 22.088C371.848 25.736 374.728 30.008 376.84 34.904C378.952 39.8 380.008 45.032 380.008 50.6C380.008 56.168 378.952 61.4 376.84 66.296C374.728 71.192 371.848 75.464 368.2 79.112C364.552 82.76 360.28 85.64 355.384 87.752C350.488 89.864 345.256 90.92 339.688 90.92ZM355.528 19.064C354.28 18.488 352.984 18.44 351.64 18.92C350.392 19.304 349.432 20.12 348.76 21.368C348.088 22.712 347.944 24.056 348.328 25.4C348.808 26.648 349.72 27.56 351.064 28.136C353.08 29.192 354.904 30.488 356.536 32.024C358.264 33.56 359.8 35.288 361.144 37.208L352.792 45.56H314.92C315.688 42.008 317.128 38.792 319.24 35.912C321.352 33.032 323.944 30.632 327.016 28.712C328.36 28.04 329.176 27.08 329.464 25.832C329.848 24.488 329.656 23.192 328.888 21.944C328.216 20.792 327.208 20.024 325.864 19.64C324.616 19.16 323.32 19.304 321.976 20.072C316.504 23.24 312.184 27.56 309.016 33.032C305.944 38.408 304.408 44.264 304.408 50.6C304.408 56.936 305.944 62.84 309.016 68.312C312.184 73.688 316.504 77.96 321.976 81.128C323.32 81.896 324.616 82.088 325.864 81.704C327.208 81.224 328.216 80.456 328.888 79.4C329.656 78.056 329.848 76.76 329.464 75.512C329.176 74.168 328.36 73.16 327.016 72.488C323.944 70.568 321.352 68.168 319.24 65.288C317.128 62.408 315.688 59.192 314.92 55.64H352.792L361.144 63.992C359.8 65.912 358.264 67.64 356.536 69.176C354.904 70.712 353.08 72.008 351.064 73.064C349.72 73.736 348.808 74.744 348.328 76.088C347.944 77.336 348.088 78.584 348.76 79.832C349.432 81.176 350.392 82.088 351.64 82.568C352.984 82.952 354.28 82.808 355.528 82.136C359.08 80.312 362.248 77.96 365.032 75.08C367.816 72.2 370.12 68.936 371.944 65.288C372.328 64.232 372.376 63.176 372.088 62.12C371.896 61.064 371.416 60.152 370.648 59.384L361.864 50.6L370.648 41.816C372.28 40.184 372.712 38.264 371.944 36.056C370.12 32.408 367.816 29.144 365.032 26.264C362.248 23.288 359.08 20.888 355.528 19.064Z" fill="black"/>
<path d="M436.117 0.199997C429.205 0.199997 422.678 1.544 416.534 4.232C410.39 6.824 405.013 10.424 400.405 15.032C395.893 19.64 392.293 25.016 389.605 31.16C387.013 37.208 385.717 43.688 385.717 50.6C385.717 57.512 387.013 64.04 389.605 70.184C392.293 76.328 395.893 81.704 400.405 86.312C405.013 90.824 410.39 94.424 416.534 97.112C422.678 99.704 429.205 101 436.117 101C443.029 101 449.509 99.704 455.557 97.112C461.701 94.424 467.077 90.824 471.685 86.312C476.293 81.704 479.894 76.328 482.486 70.184C485.174 64.04 486.518 57.512 486.518 50.6C486.518 43.688 485.174 37.208 482.486 31.16C479.894 25.016 476.293 19.64 471.685 15.032C467.077 10.424 461.701 6.824 455.557 4.232C449.509 1.544 443.029 0.199997 436.117 0.199997ZM436.117 90.92C430.549 90.92 425.318 89.864 420.422 87.752C415.526 85.64 411.253 82.76 407.605 79.112C403.957 75.464 401.078 71.192 398.966 66.296C396.854 61.4 395.797 56.168 395.797 50.6C395.797 45.032 396.854 39.8 398.966 34.904C401.078 30.008 403.957 25.736 407.605 22.088C411.253 18.44 415.526 15.56 420.422 13.448C425.318 11.336 430.549 10.28 436.117 10.28C441.685 10.28 446.918 11.336 451.814 13.448C456.71 15.56 460.982 18.44 464.63 22.088C468.278 25.736 471.157 30.008 473.27 34.904C475.382 39.8 476.438 45.032 476.438 50.6C476.438 56.168 475.382 61.4 473.27 66.296C471.157 71.192 468.278 75.464 464.63 79.112C460.982 82.76 456.71 85.64 451.814 87.752C446.918 89.864 441.685 90.92 436.117 90.92ZM436.117 15.32C431.221 15.32 426.613 16.28 422.293 18.2C418.069 20.024 414.374 22.52 411.206 25.688C408.038 28.856 405.493 32.6 403.573 36.92C401.749 41.144 400.837 45.704 400.837 50.6C400.837 55.496 401.749 60.104 403.573 64.424C405.493 68.648 408.038 72.344 411.206 75.512C414.374 78.68 418.069 81.224 422.293 83.144C426.613 84.968 431.221 85.88 436.117 85.88C442.453 85.88 448.31 84.344 453.686 81.272C459.158 78.104 463.478 73.784 466.646 68.312C467.414 66.968 467.557 65.672 467.077 64.424C466.693 63.08 465.926 62.072 464.773 61.4C463.525 60.632 462.229 60.44 460.885 60.824C459.637 61.112 458.677 61.928 458.005 63.272C455.797 67.208 452.678 70.28 448.646 72.488C444.71 74.696 440.533 75.8 436.117 75.8C433.045 75.8 430.117 75.32 427.333 74.36C424.645 73.304 422.198 71.912 419.99 70.184C417.878 68.36 416.053 66.2 414.517 63.704C412.981 61.208 411.925 58.52 411.349 55.64H436.117C437.461 55.64 438.613 55.16 439.573 54.2C440.629 53.144 441.158 51.944 441.158 50.6C441.158 49.256 440.629 48.104 439.573 47.144C438.613 46.088 437.461 45.56 436.117 45.56H411.349C411.925 42.68 412.981 40.04 414.517 37.64C416.053 35.144 417.878 32.984 419.99 31.16C422.198 29.336 424.645 27.944 427.333 26.984C430.117 25.928 433.045 25.4 436.117 25.4C440.533 25.4 444.71 26.504 448.646 28.712C452.678 30.92 455.797 34.04 458.005 38.072C458.677 39.32 459.637 40.136 460.885 40.52C462.229 40.808 463.525 40.568 464.773 39.8C465.926 39.128 466.693 38.168 467.077 36.92C467.557 35.576 467.414 34.28 466.646 33.032C463.478 27.56 459.158 23.24 453.686 20.072C448.31 16.904 442.453 15.32 436.117 15.32Z" fill="black"/>
<path d="M532.547 0.199997C525.635 0.199997 519.107 1.544 512.963 4.232C506.819 6.824 501.443 10.424 496.835 15.032C492.323 19.64 488.723 25.016 486.035 31.16C483.443 37.208 482.147 43.688 482.147 50.6C482.147 57.512 483.443 64.04 486.035 70.184C488.723 76.328 492.323 81.704 496.835 86.312C501.443 90.824 506.819 94.424 512.963 97.112C519.107 99.704 525.635 101 532.547 101C539.459 101 545.939 99.704 551.987 97.112C558.131 94.424 563.507 90.824 568.115 86.312C572.723 81.704 576.323 76.328 578.915 70.184C581.603 64.04 582.947 57.512 582.947 50.6C582.947 43.688 581.603 37.208 578.915 31.16C576.323 25.016 572.723 19.64 568.115 15.032C563.507 10.424 558.131 6.824 551.987 4.232C545.939 1.544 539.459 0.199997 532.547 0.199997ZM532.547 90.92C526.979 90.92 521.747 89.864 516.851 87.752C511.955 85.64 507.683 82.76 504.035 79.112C500.387 75.464 497.507 71.192 495.395 66.296C493.283 61.4 492.227 56.168 492.227 50.6C492.227 45.032 493.283 39.8 495.395 34.904C497.507 30.008 500.387 25.736 504.035 22.088C507.683 18.44 511.955 15.56 516.851 13.448C521.747 11.336 526.979 10.28 532.547 10.28C538.115 10.28 543.347 11.336 548.243 13.448C553.139 15.56 557.411 18.44 561.059 22.088C564.707 25.736 567.587 30.008 569.699 34.904C571.811 39.8 572.867 45.032 572.867 50.6C572.867 56.168 571.811 61.4 569.699 66.296C567.587 71.192 564.707 75.464 561.059 79.112C557.411 82.76 553.139 85.64 548.243 87.752C543.347 89.864 538.115 90.92 532.547 90.92ZM532.547 15.32C526.211 15.32 520.307 16.904 514.835 20.072C509.459 23.24 505.187 27.56 502.019 33.032C501.251 34.28 501.059 35.576 501.443 36.92C501.923 38.168 502.691 39.128 503.747 39.8C505.091 40.568 506.387 40.808 507.635 40.52C508.979 40.136 509.987 39.32 510.659 38.072C512.579 34.904 514.979 32.312 517.859 30.296C520.739 28.184 523.955 26.744 527.507 25.976V80.84C527.507 82.184 527.987 83.384 528.947 84.44C530.003 85.4 531.203 85.88 532.547 85.88C533.891 85.88 535.043 85.4 536.003 84.44C537.059 83.384 537.587 82.184 537.587 80.84V25.976C541.139 26.744 544.355 28.184 547.235 30.296C550.115 32.312 552.515 34.904 554.435 38.072C555.107 39.32 556.067 40.136 557.315 40.52C558.659 40.808 559.955 40.568 561.203 39.8C562.355 39.128 563.123 38.168 563.507 36.92C563.987 35.576 563.843 34.28 563.075 33.032C559.907 27.56 555.587 23.24 550.115 20.072C544.739 16.904 538.883 15.32 532.547 15.32Z" fill="black"/>
<path d="M596.34 62V36.656H616.968C618.36 36.656 619.548 36.788 620.532 37.052C621.54 37.292 622.344 37.652 622.944 38.132C623.568 38.588 624.024 39.164 624.312 39.86C624.6 40.532 624.744 41.288 624.744 42.128V44.468C624.744 45.572 624.468 46.508 623.916 47.276C623.388 48.02 622.668 48.488 621.756 48.68C622.716 48.944 623.508 49.4 624.132 50.048C624.756 50.672 625.068 51.596 625.068 52.82V56.528C625.068 57.248 624.936 57.944 624.672 58.616C624.432 59.264 624 59.84 623.376 60.344C622.776 60.848 621.96 61.256 620.928 61.568C619.896 61.856 618.6 62 617.04 62H596.34ZM620.28 52.892C620.28 52.1 619.98 51.548 619.38 51.236C618.78 50.9 618 50.732 617.04 50.732H601.128V58.256H617.04C618 58.256 618.78 58.076 619.38 57.716C619.98 57.356 620.28 56.66 620.28 55.628V52.892ZM619.956 42.38C619.956 41.684 619.74 41.18 619.308 40.868C618.876 40.556 618.096 40.4 616.968 40.4H601.128V46.988H616.968C618.096 46.988 618.876 46.832 619.308 46.52C619.74 46.208 619.956 45.704 619.956 45.008V42.38Z" fill="black"/>
<path d="M640.077 62V51.704L623.805 36.656H629.925L642.453 48.248L654.981 36.656H661.029L644.865 51.704V62H640.077Z" fill="black"/>
<path d="M685.976 21.1483V19.3396L700.459 9.29106H685.976V7H705.219V8.80873L690.675 18.8572H705.219V21.1483H685.976Z" fill="black"/>
<path d="M706.281 21.1483V7H721.008V9.09009H708.987V12.6272H720.398V14.7173H708.987V19.0582H721.008V21.1483H706.281Z" fill="black"/>
<path d="M689.027 40.207V45.4322H686.322V31.2839H698.059C698.872 31.2839 699.564 31.371 700.133 31.5452C700.703 31.7059 701.164 31.9404 701.517 32.2486C701.883 32.5433 702.147 32.8984 702.31 33.3137C702.473 33.729 702.554 34.1913 702.554 34.7004V36.7905C702.554 37.2996 702.473 37.7618 702.31 38.1772C702.147 38.5925 701.883 38.9543 701.517 39.2624C701.164 39.5572 700.703 39.7916 700.133 39.9658C699.564 40.1266 698.872 40.207 698.059 40.207H689.027ZM699.849 34.6803C699.849 33.8094 699.252 33.374 698.059 33.374H689.027V38.1169H698.059C699.252 38.1169 699.849 37.6814 699.849 36.8106V34.6803Z" fill="black"/>
<path d="M717.843 45.4322V39.0012H706.126V45.4322H703.421V31.2839H706.126V36.9111H717.843V31.2839H720.548V45.4322H717.843Z" fill="black"/>
<path d="M694.194 69.7161V63.9684L685 55.5678H688.458L695.536 62.039L702.615 55.5678H706.032L696.899 63.9684V69.7161H694.194Z" fill="black"/>
<path d="M719.949 69.7161L716.593 63.4056H709.046V69.7161H706.341V55.5678H718.505C719.318 55.5678 720.01 55.6549 720.579 55.8291C721.149 55.9898 721.61 56.2243 721.963 56.5325C722.329 56.8272 722.593 57.1823 722.756 57.5976C722.919 58.0129 723 58.4752 723 58.9843V59.9891C723 60.9002 722.729 61.6639 722.186 62.2802C721.644 62.8831 720.735 63.2449 719.461 63.3654L722.837 69.7161H719.949ZM720.295 58.9642C720.295 58.0933 719.698 57.6579 718.505 57.6579H709.046V61.3156H718.505C719.698 61.3156 720.295 60.8801 720.295 60.0092V58.9642Z" fill="black"/>
<path d="M690.756 94C689.943 94 689.251 93.9196 688.682 93.7588C688.112 93.5847 687.644 93.3502 687.278 93.0554C686.926 92.7473 686.668 92.3855 686.505 91.9702C686.342 91.5549 686.261 91.0926 686.261 90.5835V79.8517H688.966V90.6036C688.966 91.4745 689.563 91.9099 690.756 91.9099H699.645C700.839 91.9099 701.435 91.4745 701.435 90.6036V79.8517H704.141V90.5835C704.141 91.0926 704.086 91.5549 703.978 91.9702C703.883 92.3855 703.686 92.7473 703.388 93.0554C703.103 93.3502 702.703 93.5847 702.188 93.7588C701.686 93.9196 701.028 94 700.215 94H690.756Z" fill="black"/>
<path d="M705.888 94V91.9099H718.337C719.53 91.9099 720.127 91.4745 720.127 90.6036V88.815C720.127 87.9441 719.53 87.5087 718.337 87.5087H709.916C709.102 87.5087 708.411 87.4283 707.841 87.2675C707.272 87.0933 706.804 86.8589 706.438 86.5641C706.085 86.256 705.827 85.8942 705.665 85.4789C705.502 85.0635 705.421 84.6013 705.421 84.0922V83.2682C705.421 82.7591 705.502 82.2968 705.665 81.8815C705.827 81.4662 706.085 81.1111 706.438 80.8164C706.804 80.5082 707.272 80.2737 707.841 80.113C708.411 79.9388 709.102 79.8517 709.916 79.8517H722.039V81.9418H709.916C708.723 81.9418 708.126 82.3772 708.126 83.2481V84.1123C708.126 84.9831 708.723 85.4186 709.916 85.4186H718.337C719.151 85.4186 719.842 85.5057 720.412 85.6798C720.981 85.8406 721.442 86.0751 721.795 86.3832C722.161 86.678 722.425 87.033 722.588 87.4484C722.751 87.8637 722.832 88.3259 722.832 88.8351V90.5835C722.832 91.0926 722.751 91.5549 722.588 91.9702C722.425 92.3855 722.161 92.7473 721.795 93.0554C721.442 93.3502 720.981 93.5847 720.412 93.7588C719.842 93.9196 719.151 94 718.337 94H705.888Z" fill="black"/>
<path fill-rule="evenodd" clip-rule="evenodd" d="M728.443 4.51695H681.557V98.4831H728.443V4.51695ZM679 2V101H731V2H679Z" fill="black"/>
</svg>
